# xmcd
#
# Track frame offsets:
#	150
#	12287
#	27597
#	41927
#	54847
#	69722
#	90785
#	117060
#	131102
#	145512
#	157897
#	174145
#
# Disc length: 2509 seconds
#
# Revision: 1
# Processed by: cddbd v1.4b42PL1 Copyright (c) Steve Scherf et al.
# Submitted via: audiograbber 1.80
#
DISCID=9009cb0c
DTITLE=Sea Stories - Millers Pond
DYEAR=1900
DGENRE=
TTITLE0=For 1000 Years
TTITLE1=Backgrounds
TTITLE2=Always feel Better
TTITLE3=Stay Awhile
TTITLE4=The Same Path
TTITLE5=How do You Live
TTITLE6=In Memorium
TTITLE7=Still They Stand
TTITLE8=Talk and The Tides
TTITLE9=It's Alright if you do
TTITLE10=Secret World
TTITLE11=So Much More
EXTD=
EXTT0=
EXTT1=
EXTT2=
EXTT3=
EXTT4=
EXTT5=
EXTT6=
EXTT7=
EXTT8=
EXTT9=
EXTT10=
EXTT11=
PLAYORDER=
